<?xml version="1.0" encoding="utf-8"?>
<!-- Generator: Adobe Illustrator 19.2.1, SVG Export Plug-In . SVG Version: 6.00 Build 0)  -->
<svg version="1.1" id="layer" xmlns="http://www.w3.org/2000/svg" xmlns:xlink="http://www.w3.org/1999/xlink" x="0px" y="0px"
	 viewBox="0 242 652 150" style="enable-background:new 0 0 652 652;" xml:space="preserve">
<style type="text/css">
	.st0{fill:#477BE4;}
</style>
<g id="Page-1">
	<g id="psychology-today-logo-2012-white">
		<path id="Fill-1" class="st0" d="M223.7,289.9c0-6.9-5.6-12.4-12.4-12.4h-9.7v-21.2h-13.8v109.4h13.8v-16c0,0,0,0.1,0,0.1V295
			c0-4.5,1.7-4.9,4.3-4.9c2.6,0,4.3,0.4,4.3,4.9v70.7h13.5V289.9"/>
		<path id="Fill-2" class="st0" d="M312.1,349c0,4.5-1.6,4.9-4,4.9c-2.4,0-4-0.4-4-4.9v-53c0-4.5,1.6-4.9,4-4.9c2.5,0,4,0.3,4,4.9
			V349L312.1,349z M308,276.6c-9.9,0-18,8.1-18,18v54.1c0,9.9,8.1,18,18,18c9.9,0,18-8.1,18-18v-54.1
			C326,284.7,317.9,276.6,308,276.6L308,276.6z"/>
		<path id="Fill-3" class="st0" d="M619.2,277.5h-12.3v71.9c0,0.8-0.1,1.4-0.2,2v0.5h-0.1c-0.6,2.2-2,2.4-4,2.4c-2,0-3.4-0.2-4-2.4
			h-0.2V351c-0.1-0.5-0.1-1-0.1-1.6v-71.9h-13.7v75.8c0,6.9,5.6,12.4,12.4,12.4h9.7v20.9h13.8V277.5H619.2"/>
		<path id="Fill-4" class="st0" d="M523.1,348.8c0,3.3-0.8,4.4-2.2,4.7c-0.6,0.3-1.5,0.4-2.4,0.4c-2.4,0-4-0.4-4-4.9v-53
			c0-3.3,0.8-4.4,2.2-4.7c0.6-0.3,1.5-0.4,2.4-0.4c2.5,0,4,0.3,4,4.9V348.8L523.1,348.8z M534.9,256.3h-12.4v21.2h-9.7
			c-6.9,0-12.4,5.6-12.4,12.4v63.3c0,6.9,5.6,12.4,12.4,12.4h23.5V256.3H534.9L534.9,256.3z"/>
		<path id="Fill-5" class="st0" d="M481.6,349c0,4.5-1.7,4.9-4.3,4.9c-2.6,0-4.3-0.4-4.3-4.9v-53c0-4.5,1.7-4.9,4.3-4.9
			c2.6,0,4.3,0.3,4.3,4.9V349L481.6,349z M477.3,276.6c-9.9,0-18,8.1-18,18v54.1c0,9.9,8.1,18,18,18c9.9,0,18-8.1,18-18v-54.1
			C495.3,284.7,487.2,276.6,477.3,276.6L477.3,276.6z"/>
		<path id="Fill-6" class="st0" d="M281.1,259c-2.4-2.2-5.4-3.5-8.6-3.7l-1.5-0.1v110.4h13.8v-97.9
			C284.8,264.5,283.5,261.2,281.1,259"/>
		<path id="Fill-7" class="st0" d="M463.3,256.3h-34.5v13.8h11.1v95.6h13.8v-95.6h11.1v-13.8H463.3"/>
		<path id="Fill-8" class="st0" d="M252.1,349c0,4.5-1.6,4.9-4,4.9c-2.5,0-4-0.4-4-4.9v-53c0-4.5,1.6-4.9,4-4.9c2.4,0,4,0.3,4,4.9
			V349L252.1,349z M248,276.6c-9.9,0-18,8.1-18,18v54.1c0,9.9,8.1,18,18,18s18-8.1,18-18v-54.1C266,284.7,257.9,276.6,248,276.6
			L248,276.6z"/>
		<path id="Fill-9" class="st0" d="M97.2,302.4v-7.8c0-9.9-8.1-18-18-18c-9.9,0-18,8.1-18,18v21.5c0,6.9,5.6,12.4,12.4,12.4h9.7v7.8
			c0,0.3,0,0.6,0,1v13.2c0,4.5-1.6,4.9-4.2,4.9c-2.5,0-4.2-0.4-4.2-4.9v-9.6H61.2v7.8c0,9.9,8.1,18,18,18c9.9,0,18-8.1,18-18v-21.5
			c0-6.9-5.6-12.4-12.4-12.4H75v-18.4h0.1v-0.2c0-4.5,1.6-4.9,4.1-4.9c2.5,0,4.1,0.4,4.1,4.9v0.2h0v6.1H97.2"/>
		<path id="Fill-11" class="st0" d="M42.7,300.4L42.7,300.4L42.7,300.4c0,4.6-1.6,4.9-4.1,4.9s-4.1-0.4-4.1-4.9v-0.1h0v-25.3h0v-0.3
			c0-4.5,1.6-4.9,4.1-4.9c2.5,0,4.1,0.3,4.1,4.9v0.3h0V300.4L42.7,300.4z M44,256.3H20.5v109.4h13.8v-47.8H44
			c6.9,0,12.4-5.6,12.4-12.4v-36.8C56.5,261.9,50.9,256.3,44,256.3L44,256.3z"/>
		<path id="Fill-13" class="st0" d="M354.2,345.7L354.2,345.7l-0.1,3c0,4.5-1.7,4.9-4.3,4.9c-2.6,0-4.3-0.3-4.3-4.9v-53
			c0-4.5,1.7-4.9,4.3-4.9c2.6,0,4.3,0.3,4.3,4.9v3.2h0.1V345.7L354.2,345.7z M350.1,276.6c-9.9,0-18,8.1-18,18v58.7
			c0,6.9,5.6,12.4,12.4,12.4h9.7v8h-19.7v13.8h21.1c6.9,0,12.4-5.6,12.4-12.4v-80.5C368.1,284.7,360,276.6,350.1,276.6L350.1,276.6z
			"/>
		<path id="Fill-14" class="st0" d="M163.5,353.4c-2.6,0-4.2-0.4-4.2-4.9v-53c0-4.5,1.6-4.9,4.2-4.9c2.6,0,4.2,0.4,4.2,4.9v6.9h13.8
			v-7.8c0-9.9-8.1-18-18-18c-9.9,0-18,8.1-18,18v54.1c0,9.9,8.1,18,18,18c9.9,0,18-8.1,18-18v-7.8h-13.8v7.6
			C167.8,353,166.1,353.4,163.5,353.4"/>
		<path id="Fill-15" class="st0" d="M565,348.6c0,1.2-0.1,2.1-0.4,2.8v0.5h-0.2c-0.7,1.4-2.1,1.6-3.9,1.6c-1.8,0-3.1-0.2-3.8-1.6
			h-0.4v-1.1c-0.1-0.6-0.2-1.4-0.2-2.3v-31.9c0-0.9,0.1-1.7,0.2-2.3v-0.5h0.1c0.6-1.9,2.1-2.1,4.1-2.1c2.7,0,4.4,0.3,4.4,4.9V348.6
			L565,348.6z M566.1,277.5H545v13.8h19.7v8.7H555c-6.9,0-12.4,5.6-12.4,12.4v40.8c0,6.9,5.6,12.4,12.4,12.4h23.5v-75.8
			C578.5,283.1,572.9,277.5,566.1,277.5L566.1,277.5z"/>
		<path id="Fill-16" class="st0" d="M137.9,277.5h-12.3v71.9c0,0.8-0.1,1.4-0.1,2v0.5h-0.1c-0.6,2.2-2,2.4-4,2.4c-2,0-3.4-0.2-4-2.4
			h-0.2V351c-0.1-0.5-0.1-1-0.1-1.6v-71.9h-13.7v75.8c0,6.9,5.6,12.4,12.4,12.4h9.7v20.9h13.8V277.5H137.9"/>
		<path id="Fill-17" class="st0" d="M407.7,277.5h-12.3v71.9c0,0.8-0.1,1.4-0.2,2v0.5h-0.1c-0.6,2.2-2,2.4-4,2.4c-2,0-3.4-0.2-4-2.4
			h-0.2V351c-0.1-0.5-0.1-1-0.1-1.6v-71.9h-13.7v75.8c0,6.9,5.6,12.4,12.4,12.4h9.7v20.9H409V277.5H407.7"/>
		<path id="Fill-18" class="st0" d="M223.7,289.9c0-6.9-5.6-12.4-12.4-12.4h-9.7v-21.2h-13.8v109.4h13.8v-16c0,0,0,0.1,0,0.1V295
			c0-4.5,1.7-4.9,4.3-4.9c2.6,0,4.3,0.4,4.3,4.9v70.7h13.5V289.9"/>
		<path id="Fill-19" class="st0" d="M312.1,349c0,4.5-1.6,4.9-4,4.9c-2.4,0-4-0.4-4-4.9v-53c0-4.5,1.6-4.9,4-4.9c2.5,0,4,0.3,4,4.9
			V349L312.1,349z M308,276.6c-9.9,0-18,8.1-18,18v54.1c0,9.9,8.1,18,18,18c9.9,0,18-8.1,18-18v-54.1
			C326,284.7,317.9,276.6,308,276.6L308,276.6z"/>
		<path id="Fill-20" class="st0" d="M619.2,277.5h-12.3v71.9c0,0.8-0.1,1.4-0.2,2v0.5h-0.1c-0.6,2.2-2,2.4-4,2.4c-2,0-3.4-0.2-4-2.4
			h-0.2V351c-0.1-0.5-0.1-1-0.1-1.6v-71.9h-13.7v75.8c0,6.9,5.6,12.4,12.4,12.4h9.7v20.9h13.8V277.5H619.2"/>
		<path id="Fill-21" class="st0" d="M523.1,348.8c0,3.3-0.8,4.4-2.2,4.7c-0.6,0.3-1.5,0.4-2.4,0.4c-2.4,0-4-0.4-4-4.9v-53
			c0-3.3,0.8-4.4,2.2-4.7c0.6-0.3,1.5-0.4,2.4-0.4c2.5,0,4,0.3,4,4.9V348.8L523.1,348.8z M534.9,256.3h-12.4v21.2h-9.7
			c-6.9,0-12.4,5.6-12.4,12.4v63.3c0,6.9,5.6,12.4,12.4,12.4h23.5V256.3H534.9L534.9,256.3z"/>
		<path id="Fill-22" class="st0" d="M481.6,349c0,4.5-1.7,4.9-4.3,4.9c-2.6,0-4.3-0.4-4.3-4.9v-53c0-4.5,1.7-4.9,4.3-4.9
			c2.6,0,4.3,0.3,4.3,4.9V349L481.6,349z M477.3,276.6c-9.9,0-18,8.1-18,18v54.1c0,9.9,8.1,18,18,18c9.9,0,18-8.1,18-18v-54.1
			C495.3,284.7,487.2,276.6,477.3,276.6L477.3,276.6z"/>
		<path id="Fill-23" class="st0" d="M281.1,259c-2.4-2.2-5.4-3.5-8.6-3.7l-1.5-0.1v110.4h13.8v-97.9
			C284.8,264.5,283.5,261.2,281.1,259"/>
		<path id="Fill-24" class="st0" d="M463.3,256.3h-34.5v13.8h11.1v95.6h13.8v-95.6h11.1v-13.8H463.3"/>
		<path id="Fill-25" class="st0" d="M252.1,349c0,4.5-1.6,4.9-4,4.9c-2.5,0-4-0.4-4-4.9v-53c0-4.5,1.6-4.9,4-4.9c2.4,0,4,0.3,4,4.9
			V349L252.1,349z M248,276.6c-9.9,0-18,8.1-18,18v54.1c0,9.9,8.1,18,18,18s18-8.1,18-18v-54.1C266,284.7,257.9,276.6,248,276.6
			L248,276.6z"/>
		<path id="Fill-26" class="st0" d="M97.2,302.4v-7.8c0-9.9-8.1-18-18-18c-9.9,0-18,8.1-18,18v21.5c0,6.9,5.6,12.4,12.4,12.4h9.7
			v7.8c0,0.3,0,0.6,0,1v13.2c0,4.5-1.6,4.9-4.2,4.9c-2.5,0-4.2-0.4-4.2-4.9v-9.6H61.2v7.8c0,9.9,8.1,18,18,18c9.9,0,18-8.1,18-18
			v-21.5c0-6.9-5.6-12.4-12.4-12.4H75v-18.4h0.1v-0.2c0-4.5,1.6-4.9,4.1-4.9c2.5,0,4.1,0.4,4.1,4.9v0.2h0v6.1H97.2"/>
		<path id="Fill-28" class="st0" d="M42.7,300.4L42.7,300.4L42.7,300.4c0,4.6-1.6,4.9-4.1,4.9s-4.1-0.4-4.1-4.9v-0.1h0v-25.3h0v-0.3
			c0-4.5,1.6-4.9,4.1-4.9c2.5,0,4.1,0.3,4.1,4.9v0.3h0V300.4L42.7,300.4z M44,256.3H20.5v109.4h13.8v-47.8H44
			c6.9,0,12.4-5.6,12.4-12.4v-36.8C56.5,261.9,50.9,256.3,44,256.3L44,256.3z"/>
		<path id="Fill-30" class="st0" d="M354.2,345.7L354.2,345.7l-0.1,3c0,4.5-1.7,4.9-4.3,4.9c-2.6,0-4.3-0.3-4.3-4.9v-53
			c0-4.5,1.7-4.9,4.3-4.9c2.6,0,4.3,0.3,4.3,4.9v3.2h0.1V345.7L354.2,345.7z M350.1,276.6c-9.9,0-18,8.1-18,18v58.7
			c0,6.9,5.6,12.4,12.4,12.4h9.7v8h-19.7v13.8h21.1c6.9,0,12.4-5.6,12.4-12.4v-80.5C368.1,284.7,360,276.6,350.1,276.6L350.1,276.6z
			"/>
		<path id="Fill-31" class="st0" d="M163.5,353.4c-2.6,0-4.2-0.4-4.2-4.9v-53c0-4.5,1.6-4.9,4.2-4.9c2.6,0,4.2,0.4,4.2,4.9v6.9h13.8
			v-7.8c0-9.9-8.1-18-18-18c-9.9,0-18,8.1-18,18v54.1c0,9.9,8.1,18,18,18c9.9,0,18-8.1,18-18v-7.8h-13.8v7.6
			C167.8,353,166.1,353.4,163.5,353.4"/>
		<path id="Fill-32" class="st0" d="M565,348.6c0,1.2-0.1,2.1-0.4,2.8v0.5h-0.2c-0.7,1.4-2.1,1.6-3.9,1.6c-1.8,0-3.1-0.2-3.8-1.6
			h-0.4v-1.1c-0.1-0.6-0.2-1.4-0.2-2.3v-31.9c0-0.9,0.1-1.7,0.2-2.3v-0.5h0.1c0.6-1.9,2.1-2.1,4.1-2.1c2.7,0,4.4,0.3,4.4,4.9V348.6
			L565,348.6z M566.1,277.5H545v13.8h19.7v8.7H555c-6.9,0-12.4,5.6-12.4,12.4v40.8c0,6.9,5.6,12.4,12.4,12.4h23.5v-75.8
			C578.5,283.1,572.9,277.5,566.1,277.5L566.1,277.5z"/>
		<path id="Fill-33" class="st0" d="M137.9,277.5h-12.3v71.9c0,0.8-0.1,1.4-0.1,2v0.5h-0.1c-0.6,2.2-2,2.4-4,2.4c-2,0-3.4-0.2-4-2.4
			h-0.2V351c-0.1-0.5-0.1-1-0.1-1.6v-71.9h-13.7v75.8c0,6.9,5.6,12.4,12.4,12.4h9.7v20.9h13.8V277.5H137.9"/>
		<path id="Fill-34" class="st0" d="M407.7,277.5h-12.3v71.9c0,0.8-0.1,1.4-0.2,2v0.5h-0.1c-0.6,2.2-2,2.4-4,2.4c-2,0-3.4-0.2-4-2.4
			h-0.2V351c-0.1-0.5-0.1-1-0.1-1.6v-71.9h-13.7v75.8c0,6.9,5.6,12.4,12.4,12.4h9.7v20.9H409V277.5H407.7"/>
	</g>
</g>
</svg>
