<?xml version="1.0" standalone="no"?>
<!DOCTYPE svg PUBLIC "-//W3C//DTD SVG 20010904//EN"
 "http://www.w3.org/TR/2001/REC-SVG-20010904/DTD/svg10.dtd">
<svg version="1.0" xmlns="http://www.w3.org/2000/svg"
 width="443.000000pt" height="443.000000pt" viewBox="0 0 443.000000 443.000000"
 preserveAspectRatio="xMidYMid meet">
<metadata>
Created by potrace 1.14, written by Peter Selinger 2001-2017
</metadata>
<g transform="translate(0.000000,443.000000) scale(0.100000,-0.100000)"
fill="#000000" stroke="none">
<path d="M2196 4269 c-3 -8 -16 -81 -31 -164 -14 -82 -28 -160 -30 -171 -4
-19 -14 -22 -82 -29 -483 -42 -945 -319 -1204 -720 l-54 -84 -172 0 -173 -1 0
-384 0 -385 -42 -10 -43 -11 43 5 c37 5 42 3 42 -14 0 -18 -7 -20 -72 -19 -40
0 -76 5 -79 10 -7 11 -89 1 -89 -11 0 -4 54 -16 120 -26 l120 -18 2 -446 3
-446 212 -3 212 -2 36 -48 c55 -72 222 -238 300 -297 238 -179 505 -287 793
-320 63 -7 116 -15 118 -18 3 -2 19 -86 36 -186 17 -99 34 -181 38 -181 4 0
19 73 34 163 16 89 30 172 33 184 5 24 4 24 158 42 379 45 777 266 1025 569
l74 92 206 2 205 3 3 442 c2 410 3 442 20 447 9 2 65 13 125 22 59 10 107 21
107 25 0 4 -15 9 -32 12 -18 3 -75 13 -125 23 l-93 16 0 384 0 384 -167 0
-168 0 -23 40 c-12 22 -56 84 -97 138 -258 344 -669 575 -1105 624 l-110 12
-5 30 c-24 135 -43 229 -44 216 -1 -8 20 -135 46 -282 l47 -268 32 0 c53 0
183 -28 280 -60 212 -71 417 -206 563 -370 34 -37 61 -71 61 -74 0 -9 -828 -7
-834 2 -2 4 -15 66 -27 137 -13 71 -24 124 -26 118 -3 -7 5 -62 16 -124 12
-63 21 -119 21 -126 0 -10 -25 -13 -100 -13 l-100 0 0 546 c0 387 3 543 11
539 7 -5 8 8 3 41 -7 54 -11 64 -18 43z m-120 -676 c-3 -10 -24 -124 -46 -253
-23 -129 -43 -236 -44 -237 -2 -2 -191 -2 -421 -1 l-418 3 52 60 c114 130 262
244 420 320 140 68 322 122 424 124 32 1 37 -2 33 -16z m-1306 -528 c0 -4 -7
-19 -15 -35 -15 -30 -16 -30 -105 -30 l-90 0 0 -324 0 -324 -22 -6 c-50 -13
-48 -29 -48 359 l0 365 140 0 c77 0 140 -2 140 -5z m1210 -7 c0 -7 -3 -23 -6
-35 l-6 -23 -444 0 c-244 0 -444 3 -444 6 0 3 9 19 21 35 l20 29 430 0 c337 0
429 -3 429 -12z m430 0 c0 -7 3 -23 6 -35 6 -23 6 -23 -105 -23 l-111 0 0 28
c0 16 3 32 7 35 3 4 51 7 105 7 72 0 98 -3 98 -12z m889 -17 c12 -16 21 -32
21 -35 0 -3 -200 -6 -445 -6 -349 0 -445 3 -445 13 0 6 -3 22 -6 35 l-6 22
430 0 431 0 20 -29z m601 -336 c0 -388 2 -372 -47 -359 l-23 6 0 324 0 324
-85 0 c-83 0 -85 0 -100 30 -8 16 -15 31 -15 35 0 3 61 5 135 5 l135 0 0 -365z
m-2517 170 c70 -18 160 -63 207 -103 l35 -30 -21 -28 c-36 -49 -46 -50 -97
-11 -80 61 -146 81 -272 81 -91 0 -120 -4 -170 -24 -196 -76 -296 -238 -282
-457 9 -156 99 -288 240 -354 69 -33 77 -34 187 -34 130 1 194 19 263 76 l37
30 0 165 0 164 55 0 55 0 0 -270 0 -270 -50 0 -50 0 0 44 0 44 -52 -28 c-82
-44 -158 -62 -263 -62 -247 0 -447 141 -516 361 -24 79 -29 230 -9 311 45 192
194 341 393 395 70 19 238 19 310 0z m2132 -5 c65 -17 165 -62 165 -74 0 -5
-31 -80 -35 -84 -2 -2 -26 8 -54 22 -74 38 -154 56 -247 56 -136 0 -220 -37
-255 -114 -23 -51 -24 -98 -3 -143 30 -63 74 -83 334 -153 164 -45 239 -90
281 -172 26 -50 26 -167 0 -223 -36 -78 -118 -138 -226 -164 -72 -18 -238 -16
-315 4 -79 20 -181 69 -210 100 l-21 23 20 41 c12 23 24 41 26 41 3 0 25 -15
50 -34 109 -84 316 -118 447 -74 81 27 138 95 138 166 0 53 -20 94 -62 125
-41 30 -39 29 -228 83 -85 24 -177 55 -205 68 -108 50 -156 120 -157 229 -1
139 83 241 232 281 82 22 231 20 325 -4z m-1020 -5 c127 -33 216 -108 255
-214 31 -80 26 -224 -9 -295 -48 -98 -142 -165 -270 -192 -42 -9 -130 -14
-243 -14 l-178 0 0 -170 0 -170 -55 0 -55 0 0 535 0 535 248 0 c190 0 261 -4
307 -15z m-1937 -552 c-3 -24 -8 -28 -35 -29 -28 -1 -33 3 -33 22 0 17 7 24
28 27 15 2 31 5 35 6 5 0 7 -11 5 -26z m3342 -58 c0 -18 -5 -25 -19 -25 -11 0
-26 -3 -35 -6 -13 -5 -16 1 -16 25 0 29 3 31 35 31 31 0 35 -3 35 -25z m185
15 c-16 -5 -56 -13 -87 -18 -53 -8 -58 -7 -58 10 0 16 9 18 88 17 66 -1 80 -3
57 -9z m-3527 -438 l2 -381 126 -3 125 -3 20 -32 21 -33 -181 0 -181 0 0 424
0 423 33 -6 32 -7 3 -382z m3342 -32 l0 -420 -175 0 -174 0 20 35 21 35 119 0
119 0 0 379 c0 402 -2 388 48 390 l22 1 0 -420z m-3144 -115 c18 -14 17 -15
-18 -9 -32 5 -38 3 -54 -20 -14 -22 -15 -31 -5 -52 9 -21 17 -25 43 -22 38 4
55 38 19 38 -12 0 -21 5 -21 10 0 6 14 10 30 10 27 0 30 -3 30 -30 0 -53 -73
-69 -109 -24 -27 35 -26 59 4 89 28 29 53 32 81 10z m698 -6 c-3 -5 -10 -7
-15 -3 -5 3 -7 10 -3 15 3 5 10 7 15 3 5 -3 7 -10 3 -15z m300 5 c19 -18 19
-20 6 -45 -7 -12 -21 -19 -40 -19 -27 0 -30 -3 -30 -30 0 -16 -4 -30 -10 -30
-11 0 -14 123 -3 133 12 13 62 7 77 -9z m356 -14 c0 -13 8 -20 27 -22 22 -2
29 -10 34 -35 3 -17 2 -37 -2 -45 -6 -9 -9 -3 -9 18 0 33 -22 60 -40 49 -5 -3
-10 -22 -10 -41 0 -19 -4 -34 -10 -34 -6 0 -10 30 -10 71 0 44 4 68 10 64 6
-3 10 -15 10 -25z m230 -40 c0 -40 -4 -70 -10 -70 -6 0 -10 30 -10 70 0 40 4
70 10 70 6 0 10 -30 10 -70z m570 0 c0 -40 -4 -70 -10 -70 -11 0 -14 123 -3
133 12 13 13 7 13 -63z m157 54 c2 -6 -6 -10 -18 -10 -34 1 -34 -21 0 -39 40
-20 43 -62 6 -71 -28 -7 -55 0 -55 15 0 6 13 8 30 5 23 -5 30 -3 30 9 0 9 -13
23 -30 32 -31 16 -39 42 -18 63 15 15 50 12 55 -4z m-437 -4 c0 -5 -4 -10 -10
-10 -5 0 -10 5 -10 10 0 6 5 10 10 10 6 0 10 -4 10 -10z m790 0 c0 -5 -4 -10
-10 -10 -5 0 -10 5 -10 10 0 6 5 10 10 10 6 0 10 -4 10 -10z m-2040 -15 c0 -8
8 -15 18 -15 16 -1 16 -1 0 -14 -10 -7 -18 -21 -18 -31 0 -10 8 -24 18 -31 16
-12 16 -13 -4 -14 -22 0 -34 17 -34 50 0 10 -6 21 -12 24 -10 5 -10 7 0 12 6
3 12 12 12 20 0 8 5 14 10 14 6 0 10 -7 10 -15z m-537 -33 c-12 -9 -24 -30
-26 -47 -3 -21 -4 -16 -6 18 -1 45 0 47 27 47 l27 0 -22 -18z m127 -28 l0 -45
-36 3 c-77 6 -75 88 2 88 34 0 34 0 34 -46z m120 27 c5 -11 10 -24 10 -30 0
-18 -31 -41 -56 -41 -19 0 -24 -6 -26 -27 -1 -16 -4 -1 -7 32 -4 33 -5 66 -3
73 7 20 70 15 82 -7z m98 7 c23 -23 13 -38 -25 -38 -43 0 -34 -16 12 -22 24
-3 27 -6 12 -12 -25 -12 -65 1 -72 24 -14 44 41 80 73 48z m120 0 c14 -14 16
-78 2 -78 -5 0 -10 13 -10 28 0 15 -5 33 -11 39 -20 20 -39 3 -39 -33 0 -19
-4 -34 -10 -34 -5 0 -10 20 -10 45 0 44 1 45 33 45 18 0 38 -5 45 -12z m139
-55 c-2 -16 -4 -5 -4 22 0 28 2 40 4 28 2 -13 2 -35 0 -50z m121 55 c14 -14
16 -78 3 -78 -6 0 -11 15 -13 33 -2 24 -8 33 -25 35 -20 3 -23 -1 -23 -32 0
-20 -4 -36 -10 -36 -5 0 -10 20 -10 45 0 44 1 45 33 45 18 0 38 -5 45 -12z
m272 2 c0 -5 -6 -7 -14 -4 -26 10 -26 -13 0 -25 16 -7 24 -18 22 -29 -4 -20
-46 -29 -62 -12 -8 9 -5 11 13 8 13 -1 26 3 28 10 3 6 -2 12 -9 12 -20 0 -37
20 -31 36 6 16 53 19 53 4z m56 -15 c3 -14 10 -25 15 -25 5 0 11 11 15 25 6
23 24 36 24 18 0 -17 -54 -133 -62 -133 -10 0 -10 3 2 34 7 18 5 35 -5 60 -18
42 -18 46 -5 46 5 0 12 -11 16 -25z m152 7 c3 -11 0 -12 -14 -4 -27 14 -44 4
-44 -25 0 -22 3 -25 30 -21 19 3 29 1 27 -6 -5 -16 -46 -19 -63 -6 -17 15 -18
52 -2 68 16 16 60 11 66 -6z m228 10 c36 -25 11 -85 -34 -80 -33 4 -53 48 -32
72 13 17 47 21 66 8z m172 -4 c7 -7 12 -21 12 -33 0 -12 -5 -26 -12 -33 -7 -7
-21 -12 -33 -12 -12 0 -26 5 -33 12 -7 7 -12 21 -12 33 0 12 5 26 12 33 7 7
21 12 33 12 12 0 26 -5 33 -12z m125 -45 c-5 -68 -20 -88 -57 -79 -36 9 -33
27 3 20 20 -4 30 -2 34 10 5 12 0 16 -18 16 -24 0 -55 23 -55 41 0 31 22 49
59 49 l39 0 -5 -57z m57 12 c0 -25 -4 -45 -10 -45 -5 0 -10 20 -10 45 0 25 5
45 10 45 6 0 10 -20 10 -45z m105 35 c4 -6 -7 -10 -25 -10 -27 0 -31 -3 -28
-22 2 -18 9 -23 31 -23 32 1 31 -18 -2 -23 -42 -7 -69 46 -39 76 15 15 54 16
63 2z m125 -35 c0 -45 0 -45 -34 -45 -19 0 -42 7 -50 16 -19 18 -19 16 -6 48
8 22 16 26 50 26 l40 0 0 -45z m318 33 c23 -23 13 -38 -24 -38 -21 0 -33 -4
-29 -10 3 -5 18 -10 33 -10 19 0 23 -3 15 -11 -33 -33 -94 29 -63 65 15 19 51
21 68 4z m80 -2 c-11 -8 -18 -26 -18 -45 0 -17 -4 -31 -10 -31 -5 0 -10 20
-10 45 0 43 2 45 28 45 24 -1 25 -2 10 -14z m61 -13 l13 -28 14 28 c23 42 35
32 15 -13 -10 -22 -21 -43 -24 -46 -5 -5 -47 67 -47 81 0 15 18 1 29 -22z
m101 -18 c0 -25 -4 -45 -10 -45 -5 0 -10 20 -10 45 0 25 5 45 10 45 6 0 10
-20 10 -45z m106 33 c5 -7 0 -9 -14 -6 -25 7 -47 -15 -38 -38 4 -11 14 -15 32
-11 15 3 23 0 21 -7 -5 -16 -46 -20 -63 -6 -17 15 -18 52 -2 68 15 15 55 16
64 0z m114 -7 c15 -29 13 -31 -25 -31 -19 0 -35 -4 -35 -10 0 -5 14 -10 31
-10 17 0 28 -4 24 -10 -9 -14 -48 -13 -63 2 -7 7 -12 21 -12 33 0 44 60 63 80
26z m90 8 c0 -6 -9 -8 -20 -4 -27 8 -26 -9 2 -27 28 -19 18 -48 -17 -48 -14 0
-25 5 -25 10 0 6 7 10 16 8 25 -4 28 19 4 25 -12 3 -20 13 -20 26 0 17 6 21
30 21 17 0 30 -5 30 -11z m-1736 -211 c3 -13 6 -29 6 -35 0 -10 -84 -13 -388
-13 l-389 0 -20 23 c-44 49 -61 47 375 47 l410 0 6 -22z m206 -13 l0 -35 -95
0 c-69 0 -95 3 -95 13 0 6 -3 22 -6 35 -6 22 -5 22 95 22 l101 0 0 -35z m1030
27 c0 -5 -13 -20 -28 -35 l-28 -27 -387 0 c-303 0 -387 3 -387 13 0 6 3 22 6
35 l6 22 409 0 c225 0 409 -4 409 -8z m-1217 -124 c17 -74 60 -349 55 -354
-10 -9 -178 23 -269 52 -166 52 -365 165 -481 274 l-53 49 371 1 372 0 5 -22z
m187 -465 c0 -267 -2 -484 -5 -481 -5 5 -52 260 -125 678 -22 129 -43 247 -46
263 l-6 27 91 0 91 0 0 -487z m878 432 c-132 -116 -302 -213 -464 -265 -101
-32 -271 -66 -281 -56 -6 5 2 56 43 289 l16 87 375 0 374 0 -63 -55z"/>
<path d="M2050 2515 l0 -265 158 0 c226 0 310 19 380 83 93 86 93 277 0 367
-66 65 -132 80 -354 80 l-184 0 0 -265z"/>
<path d="M1697 1674 c-17 -18 -6 -35 21 -32 16 2 27 9 27 18 0 16 -36 26 -48
14z"/>
<path d="M906 1624 c-20 -20 -9 -44 20 -44 19 0 24 5 24 24 0 29 -24 40 -44
20z"/>
<path d="M1024 1615 c-4 -9 -2 -21 4 -27 16 -16 47 -5 47 17 0 26 -42 34 -51
10z"/>
<path d="M1145 1630 c-3 -5 3 -10 15 -10 12 0 18 5 15 10 -3 6 -10 10 -15 10
-5 0 -12 -4 -15 -10z"/>
<path d="M2230 1625 c-16 -19 -6 -45 19 -45 25 0 34 26 15 45 -19 18 -19 18
-34 0z"/>
<path d="M2396 1624 c-8 -8 -13 -21 -9 -30 8 -22 47 -13 51 12 4 27 -22 38
-42 18z"/>
<path d="M2515 1626 c-23 -16 -13 -46 15 -46 15 0 20 7 20 24 0 31 -12 39 -35
22z"/>
<path d="M2795 1627 c-23 -17 -14 -47 15 -47 26 0 37 27 18 46 -12 12 -17 12
-33 1z"/>
<path d="M3129 1629 c-10 -6 -7 -9 14 -9 29 0 35 5 14 13 -8 3 -20 1 -28 -4z"/>
<path d="M3590 1630 c-12 -8 -11 -10 8 -10 12 0 22 5 22 10 0 13 -11 13 -30 0z"/>
<path d="M2322 3580 c-1 -14 8 -65 18 -115 11 -52 17 -69 14 -40 -8 70 -31
185 -32 155z"/>
<path d="M323 2303 c9 -2 23 -2 30 0 6 3 -1 5 -18 5 -16 0 -22 -2 -12 -5z"/>
</g>
</svg>
